<svg id="visual" viewBox="0 0 900 600" width="900" height="600" xmlns="http://www.w3.org/2000/svg" xmlns:xlink="http://www.w3.org/1999/xlink" version="1.1"><rect x="0" y="0" width="900" height="600" fill="#F7EBEC"></rect><path d="M0 252L16.7 257.8C33.3 263.7 66.7 275.3 100 275.8C133.3 276.3 166.7 265.7 200 260.7C233.3 255.7 266.7 256.3 300 260.8C333.3 265.3 366.7 273.7 400 273.8C433.3 274 466.7 266 500 266C533.3 266 566.7 274 600 270.3C633.3 266.7 666.7 251.3 700 251.5C733.3 251.7 766.7 267.3 800 266.7C833.3 266 866.7 249 883.3 240.5L900 232L900 0L883.3 0C866.7 0 833.3 0 800 0C766.7 0 733.3 0 700 0C666.7 0 633.3 0 600 0C566.7 0 533.3 0 500 0C466.7 0 433.3 0 400 0C366.7 0 333.3 0 300 0C266.7 0 233.3 0 200 0C166.7 0 133.3 0 100 0C66.7 0 33.3 0 16.7 0L0 0Z" fill="#6600ff"></path><path d="M0 203L16.7 212.7C33.3 222.3 66.7 241.7 100 252.3C133.3 263 166.7 265 200 260.5C233.3 256 266.7 245 300 241.7C333.3 238.3 366.7 242.7 400 235.7C433.3 228.7 466.7 210.3 500 212.5C533.3 214.7 566.7 237.3 600 244.8C633.3 252.3 666.7 244.7 700 231.3C733.3 218 766.7 199 800 198.8C833.3 198.7 866.7 217.3 883.3 226.7L900 236L900 0L883.3 0C866.7 0 833.3 0 800 0C766.7 0 733.3 0 700 0C666.7 0 633.3 0 600 0C566.7 0 533.3 0 500 0C466.7 0 433.3 0 400 0C366.7 0 333.3 0 300 0C266.7 0 233.3 0 200 0C166.7 0 133.3 0 100 0C66.7 0 33.3 0 16.7 0L0 0Z" fill="#7b47ff"></path><path d="M0 211L16.7 210.5C33.3 210 66.7 209 100 203.3C133.3 197.7 166.7 187.3 200 182.5C233.3 177.7 266.7 178.3 300 177.3C333.3 176.3 366.7 173.7 400 167C433.3 160.3 466.7 149.7 500 156.3C533.3 163 566.7 187 600 190.3C633.3 193.7 666.7 176.3 700 174.7C733.3 173 766.7 187 800 193.2C833.3 199.3 866.7 197.7 883.3 196.8L900 196L900 0L883.3 0C866.7 0 833.3 0 800 0C766.7 0 733.3 0 700 0C666.7 0 633.3 0 600 0C566.7 0 533.3 0 500 0C466.7 0 433.3 0 400 0C366.7 0 333.3 0 300 0C266.7 0 233.3 0 200 0C166.7 0 133.3 0 100 0C66.7 0 33.3 0 16.7 0L0 0Z" fill="#906cff"></path><path d="M0 125L16.7 125.3C33.3 125.7 66.7 126.3 100 128.5C133.3 130.7 166.7 134.3 200 128.2C233.3 122 266.7 106 300 104C333.3 102 366.7 114 400 122C433.3 130 466.7 134 500 128.5C533.3 123 566.7 108 600 109.5C633.3 111 666.7 129 700 131.3C733.3 133.7 766.7 120.3 800 115.5C833.3 110.7 866.7 114.3 883.3 116.2L900 118L900 0L883.3 0C866.7 0 833.3 0 800 0C766.7 0 733.3 0 700 0C666.7 0 633.3 0 600 0C566.7 0 533.3 0 500 0C466.7 0 433.3 0 400 0C366.7 0 333.3 0 300 0C266.7 0 233.3 0 200 0C166.7 0 133.3 0 100 0C66.7 0 33.3 0 16.7 0L0 0Z" fill="#a58dfe"></path><path d="M0 62L16.7 62C33.3 62 66.7 62 100 60.3C133.3 58.7 166.7 55.3 200 56.7C233.3 58 266.7 64 300 70.8C333.3 77.7 366.7 85.3 400 86C433.3 86.7 466.7 80.3 500 76.3C533.3 72.3 566.7 70.7 600 71.5C633.3 72.3 666.7 75.7 700 79.2C733.3 82.7 766.7 86.3 800 81.8C833.3 77.3 866.7 64.7 883.3 58.3L900 52L900 0L883.3 0C866.7 0 833.3 0 800 0C766.7 0 733.3 0 700 0C666.7 0 633.3 0 600 0C566.7 0 533.3 0 500 0C466.7 0 433.3 0 400 0C366.7 0 333.3 0 300 0C266.7 0 233.3 0 200 0C166.7 0 133.3 0 100 0C66.7 0 33.3 0 16.7 0L0 0Z" fill="#bbadfa"></path></svg>